<?xml version="1.0" encoding="UTF-8"?>
<svg width="1338px" height="279px" viewBox="0 0 1338 279" version="1.1" xmlns="http://www.w3.org/2000/svg" xmlns:xlink="http://www.w3.org/1999/xlink">
    <!-- Generator: Sketch 49.1 (51147) - http://www.bohemiancoding.com/sketch -->
    <title>happyfoxchat-logo</title>
    <desc>Created with Sketch.</desc>
    <defs></defs>
    <g id="Page-1" stroke="none" stroke-width="1" fill="none" fill-rule="evenodd">
        <g id="Artboard" transform="translate(-206.000000, -250.000000)" fill-rule="nonzero">
            <g id="happyfoxchat-logo" transform="translate(206.000000, 250.000000)">
                <g id="Group" transform="translate(0.500000, 0.000000)">
                    <polygon id="Shape" fill="#FFC300" points="127.936145 278.342323 0.203309074 182.982778 0.203309074 135.342598 73.7432947 151.996548 127.991387 227.845189 182.150477 151.996548 255.69967 135.342598 255.69967 135.342598 255.718084 135.342598 255.718084 182.982778"></polygon>
                    <path d="M0.203309074,24.4408446 L0.203309074,135.342598 L0.218654201,135.342598 L127.948421,63.158587 C127.948421,63.158587 32.2408648,7.19776629 24.0527051,3.89421546 C8.67381906,-2.38981603 0.203309074,-3.31785092 0.203309074,24.4408446 Z" id="Shape" fill="#FF8D00"></path>
                    <path d="M231.86255,3.89738281 C223.671322,7.20093364 128.236909,62.9875499 128.236909,62.9875499 L0.218654201,135.342598 L73.7647779,151.996548 L127.936145,227.845189 L182.208789,151.996548 L255.718084,135.342598 L255.718084,48.5792539 L255.718084,24.4408446 C255.718084,-3.31785092 247.247574,-2.38981603 231.86255,3.89738281 Z" id="Shape" fill="#FF4F00"></path>
                </g>
                <g id="Group-2" transform="translate(388.500000, 10.000000)" fill="#000000">
                    <g id="Group">
                        <path d="M104.513016,106.101331 C104.513016,77.5293149 96.1769887,55.2785412 61.5698446,55.2785412 C44.1399691,55.2785412 31.0044107,64.6339801 24.6892385,76.5179161 L24.1840247,76.5179161 L24.1840247,3.19150266 L0.186369995,3.19150266 L0.186369995,177.657797 L24.1840247,177.657797 L24.1840247,118.238117 C24.1840247,94.2173952 33.5304797,75.2536676 55.5072792,75.2536676 C77.4840787,75.2536676 80.2627546,92.4474473 80.2627546,109.641227 L80.2627546,177.657797 L104.513016,177.657797 L104.513016,106.101331 Z M223.766966,107.871279 C223.766966,87.3904532 218.967435,77.2764652 210.884015,68.932425 C202.800594,60.8412346 191.180677,55.2785412 171.224733,55.2785412 C151.268788,55.2785412 135.101947,62.3583328 126.260706,67.4153268 L133.586306,83.5977077 C137.628016,81.0692107 152.279216,73.23087 169.709091,73.23087 C187.138967,73.23087 199.516705,82.3334592 199.516705,100.538638 L199.516705,105.342782 L167.435629,106.607031 C139.648871,107.871279 120.450748,119.755215 120.450748,143.270237 C120.450748,166.53241 139.648871,180.439143 161.878278,180.439143 C183.855077,180.439143 195.222387,167.543809 200.021918,162.486815 L200.274525,177.657797 L223.766966,177.657797 L223.766966,107.871279 Z M199.769311,145.798734 C195.222387,152.625676 184.865505,163.245364 169.203878,163.245364 C153.289643,163.245364 144.448402,153.889925 144.448402,142.511688 C144.448402,131.133452 152.279216,122.789411 171.729947,121.778013 L199.769311,120.008065 L199.769311,145.798734 Z M373.333743,117.479568 C373.333743,81.8277598 350.85173,55.2785412 315.486765,55.2785412 C297.804283,55.2785412 283.40569,62.3583328 272.7962,76.5179161 L272.290987,76.5179161 L272.290987,57.5541885 L249.051153,57.5541885 L249.051153,224.687841 L273.301414,224.687841 L273.301414,158.694069 L273.554021,158.946919 C282.142655,172.347953 296.036034,180.439143 314.981551,180.439143 C350.599123,180.439143 373.333743,153.131376 373.333743,117.479568 Z M348.578268,117.226718 C348.578268,141.24744 334.432282,159.705468 310.434627,159.705468 C286.436972,159.705468 272.290987,141.24744 272.290987,117.226718 C272.290987,93.2059964 286.436972,75.0008179 310.434627,75.0008179 C334.432282,75.0008179 348.578268,93.2059964 348.578268,117.226718 Z M517.090562,117.479568 C517.090562,81.8277598 494.608548,55.2785412 459.243583,55.2785412 C441.561101,55.2785412 427.162508,62.3583328 416.553019,76.5179161 L416.047805,76.5179161 L416.047805,57.5541885 L392.807971,57.5541885 L392.807971,224.687841 L417.058233,224.687841 L417.058233,158.694069 L417.31084,158.946919 C425.899474,172.347953 439.792853,180.439143 458.73837,180.439143 C494.355941,180.439143 517.090562,153.131376 517.090562,117.479568 Z M492.335086,117.226718 C492.335086,141.24744 478.1891,159.705468 454.191446,159.705468 C430.193791,159.705468 416.047805,141.24744 416.047805,117.226718 C416.047805,93.2059964 430.193791,75.0008179 454.191446,75.0008179 C478.1891,75.0008179 492.335086,93.2059964 492.335086,117.226718 Z M609.062967,57.3013388 L573.698003,150.855728 L538.080431,57.5541885 L512.819742,57.3013388 L560.815051,175.1293 L555.005093,191.058831 C549.700348,205.724114 544.395603,205.218414 539.343465,205.218414 C533.2809,205.218414 526.713121,202.437067 526.713121,202.437067 L521.91359,222.159344 C521.91359,222.159344 531.260045,226.457789 544.64821,226.457789 C558.036375,226.457789 567.888044,219.377997 576.224071,198.644322 L634.07105,57.5541885 L609.062967,57.3013388 Z" id="happy"></path>
                        <path d="M706.990652,2.78778283 C706.990652,2.78778283 700.334882,0 686.776833,0 C673.218783,0 663.851403,6.58930487 658.674694,13.1786097 C653.744494,19.5144798 650.786374,29.6518719 650.786374,45.3648297 L650.786374,57.5297002 L650.786374,77.04418 L650.786374,177.657797 L674.204823,177.657797 L674.204823,77.04418 L702.060452,77.04418 L702.060452,57.5297002 L674.204823,57.5297002 L674.204823,44.0976557 C674.204823,30.4121763 676.669923,18.5007406 692.200052,18.5007406 C698.855822,18.5007406 705.511592,20.7816538 705.511592,20.7816538 L706.990652,2.78778283 Z" id="f-copy"></path>
                        <path d="M827.849307,117.985551 C827.849307,80.8168219 800.062682,55.2791236 764.445279,55.2791236 C728.575272,55.2791236 700.788646,80.8168219 700.788646,117.985551 C700.788646,155.407129 728.575272,180.43913 764.445279,180.43913 C800.062682,180.43913 827.849307,155.407129 827.849307,117.985551 Z M803.346556,117.227006 C803.346556,140.994764 788.44282,159.705553 764.445279,159.705553 C740.195133,159.705553 725.291398,140.994764 725.291398,117.227006 C725.291398,93.7120953 740.195133,75.0013064 764.445279,75.0013064 C788.44282,75.0013064 803.346556,93.7120953 803.346556,117.227006 Z M900.111212,114.445672 L943.559391,57.55476 L916.530582,57.55476 L885.965294,100.791853 L855.400005,57.55476 L828.623802,57.55476 L871.819375,114.445672 L823.066477,177.657797 L850.347892,177.657797 L885.965294,128.858037 L921.582696,177.657797 L948.86411,177.657797 L900.111212,114.445672 Z" id="ox"></path>
                    </g>
                </g>
            </g>
        </g>
    </g>
</svg>