<svg xmlns="http://www.w3.org/2000/svg" xmlns:xlink="http://www.w3.org/1999/xlink" width="64.582" height="56.411" viewBox="0 0 64.582 56.411"><defs><style>.a{fill:url(#a);}</style><linearGradient id="a" x1="0.5" x2="0.5" y2="1" gradientUnits="objectBoundingBox"><stop offset="0" stop-color="#6cd5eb"/><stop offset="1" stop-color="#ff225e"/></linearGradient></defs><g transform="translate(0 -28.756)"><g transform="translate(0 28.756)"><path class="a" d="M64.279,46.867l-9.352-6.606V30.612a2.078,2.078,0,0,0-1.781-1.856H12.173a2.078,2.078,0,0,0-1.781,1.856v9.575L.668,46.867A1.633,1.633,0,0,0,0,48.054V83.311a2.152,2.152,0,0,0,1.856,1.856H63.462c.816,0,1.113-.965,1.113-1.856V48.054C64.576,47.609,64.65,47.164,64.279,46.867Zm-9.352-3.043L61.31,48.2l-6.383,4.825ZM13.36,31.725h38.6v23.6l-19.3,14.548L13.36,55.328v-23.6ZM10.391,43.749V53.1L4.008,48.2Zm-7.422,7.5L23.752,66.982,2.969,81.01ZM6.532,82.2,26.276,68.912l5.27,4.008a1.78,1.78,0,0,0,1.039.371c.3,0,.445-.148.742-.371l5.493-4.231L58.786,82.2Zm55.075-1.707L41.269,66.833,61.607,51.246Z" transform="translate(0 -28.756)"/><path class="a" d="M137.321,99.643H144a1.484,1.484,0,0,0,0-2.969h-6.68a1.484,1.484,0,0,0,0,2.969Z" transform="translate(-116.539 -87.025)"/><path class="a" d="M137.321,146.664h23.752a1.485,1.485,0,1,0,0-2.969H137.321a1.485,1.485,0,0,0,0,2.969Z" transform="translate(-116.539 -127.366)"/><path class="a" d="M162.558,192.2a1.484,1.484,0,0,0-1.484-1.485H137.321a1.484,1.484,0,0,0,0,2.969h23.752A1.484,1.484,0,0,0,162.558,192.2Z" transform="translate(-116.539 -167.705)"/></g></g></svg>